/* XPM */
static char * bottom_left_inactive_xpm[] = {
"24 4 3 1",
" 	c None",
".	c #006100",
"+	c #000000",
".+++++++++++++++++++++++",
".+++++++++++++++++++++++",
".+++++++++++++++++++++++",
"........................"};
