/* XPM */
static char * bottom_left_active_xpm[] = {
"24 4 3 1",
" 	c None",
".	c #00FF00",
"+	c #000000",
".+++++++++++++++++++++++",
".+++++++++++++++++++++++",
".+++++++++++++++++++++++",
"........................"};
