/* XPM */
static char * left_active_xpm[] = {
"3 32 2 1",
" 	c #00FF00",
".	c #000000",
" ..",
" ..",
" ..",
" ..",
" ..",
" ..",
" ..",
" ..",
" ..",
" ..",
" ..",
" ..",
" ..",
" ..",
" ..",
" ..",
" ..",
" ..",
" ..",
" ..",
" ..",
" ..",
" ..",
" ..",
" ..",
" ..",
" ..",
" ..",
" ..",
" ..",
" ..",
" .."};
