/* XPM */
static char * left_inactive_xpm[] = {
"3 32 3 1",
" 	c None",
".	c #006100",
"+	c #000000",
".++",
".++",
".++",
".++",
".++",
".++",
".++",
".++",
".++",
".++",
".++",
".++",
".++",
".++",
".++",
".++",
".++",
".++",
".++",
".++",
".++",
".++",
".++",
".++",
".++",
".++",
".++",
".++",
".++",
".++",
".++",
".++"};
