/* XPM */
static char * title_1_inactive_xpm[] = {
"3 17 3 1",
" 	c None",
".	c #006100",
"+	c #000000",
"...",
"+++",
"+++",
"+++",
"+++",
"+++",
"+++",
"+++",
"+++",
"+++",
"+++",
"+++",
"+++",
"+++",
"+++",
"+++",
"+++"};
